<svg id="Layer_1" data-name="Layer 1" xmlns="http://www.w3.org/2000/svg" viewBox="0 0 122.88 114.22">
  <title>mens-shirts-full-sleeve</title>
  <path
    d="M105.52,102.93h15V93.8h-15v9.13Zm11.66-5.66a1.32,1.32,0,1,1-1.32,1.32,1.32,1.32,0,0,1,1.32-1.32Zm-102.77,0a1.32,1.32,0,1,1-1.32,1.32,1.32,1.32,0,0,1,1.32-1.32Zm106.08-5.86V64L100.94,24.16c-.17-.41-.41-1-.62-1.57a6,6,0,0,0-.84-1.79,6.94,6.94,0,0,0-2-.9l-1.31-.5L82.55,14.07l-3.66,15.7a1.2,1.2,0,0,1-1.43.89,1.22,1.22,0,0,1-.82-.67l-7.28-12.9-1,1-4.54,12.6v81.06c11.66-.14,23-2.3,28.21-6.61a9.63,9.63,0,0,0,1.49-1.51L90.89,49.74a1.19,1.19,0,0,1,2.21-.66l12.26,21.21a1.2,1.2,0,0,1,.16.6V91.41ZM0,92.86a1.09,1.09,0,0,1,0-.26,1.15,1.15,0,0,1,0-.26V63.63a1.2,1.2,0,0,1,.13-.55L21,23.09,21.46,22a8.08,8.08,0,0,1,1.71-3,7.18,7.18,0,0,1,2.69-1.25c.5-.17,1.09-.36,1.79-.62l15.18-5.46a1.1,1.1,0,0,1,.35-.33l2.55-7a1.19,1.19,0,0,1,.55-.7A30.26,30.26,0,0,1,61.44,0,45,45,0,0,1,78.71,3.54a1.19,1.19,0,0,1,.62.61l3.3,7.38,0,0,14.42,5.64,1.29.49a7.11,7.11,0,0,1,2.81,1.45,7,7,0,0,1,1.37,2.61l.6,1.53L122.7,63.15a1.1,1.1,0,0,1,.18.62v40.35a1.19,1.19,0,0,1-1.19,1.2H104.33a1.2,1.2,0,0,1-1.2-1.2V71.2L93.5,54.53,95.93,104a1.27,1.27,0,0,1-.21.74A11.66,11.66,0,0,1,93.55,107c-5.8,4.77-18.09,7.11-30.51,7.16a1.05,1.05,0,0,1-.4.07,1.14,1.14,0,0,1-.41-.07c-12.38,0-24.86-2.34-31.13-6.72a13.26,13.26,0,0,1-2.6-2.35,1.25,1.25,0,0,1-.27-.8l1.95-49.75L20.49,71.68v32.44a1.2,1.2,0,0,1-1.2,1.2H1.22A1.19,1.19,0,0,1,0,104.12V92.86Zm2.39-1.45H18.1v-20a1.16,1.16,0,0,1,.22-.69L30.52,49.1a1.18,1.18,0,0,1,1.62-.45,1.16,1.16,0,0,1,.6,1.07L30.63,103.9a11.14,11.14,0,0,0,1.83,1.58c5.74,4,17.3,6.16,29,6.29V30.69L56.9,18.11l-.81-.84L48.9,30a1.19,1.19,0,0,1-2.24-.22L43,14.1,28.45,19.34c-.73.26-1.33.47-1.83.63a6,6,0,0,0-1.85.78,7.18,7.18,0,0,0-1.12,2.19c-5.5,12.94-14.57,28.19-21.23,41V91.41ZM18.1,93.8H2.42v9.13H18.1V93.8Zm49.39,3.85a1.88,1.88,0,1,1-1.87,1.88,1.88,1.88,0,0,1,1.87-1.88Zm0-12.63a1.88,1.88,0,1,1-1.87,1.88A1.88,1.88,0,0,1,67.49,85Zm0-12.63a1.88,1.88,0,1,1-1.87,1.87,1.88,1.88,0,0,1,1.87-1.87Zm0-12.64a1.88,1.88,0,1,1-1.87,1.88,1.88,1.88,0,0,1,1.87-1.88Zm0-12.63A1.88,1.88,0,1,1,65.62,49a1.88,1.88,0,0,1,1.87-1.88Zm0-12.63a1.88,1.88,0,1,1-1.87,1.87,1.88,1.88,0,0,1,1.87-1.87Zm1.19-20.12,0,0L72,10.72A28.61,28.61,0,0,0,62.13,9a22.64,22.64,0,0,0-8.79,1.47l3.48,3.85a1.24,1.24,0,0,1,.29.57l1.68,1.76a1.07,1.07,0,0,1,.28.48L62.64,27l3.56-9.88a1.19,1.19,0,0,1,.29-.48l2.08-2.18.11-.1Zm5-5.53,3.16-3.5a42.64,42.64,0,0,0-15.4-2.95A29,29,0,0,0,48.5,5.11l3.17,3.51a24,24,0,0,1,10.47-2A30.41,30.41,0,0,1,73.68,8.84ZM47.2,7.22l-2,5.6,3.13,13.43,6.2-11L47.2,7.22Zm33.26,5.29L78.18,7.4l-7.12,7.88,6.2,11,3.2-13.74Z" />
</svg>