<svg id="Layer_1" data-name="Layer 1" xmlns="http://www.w3.org/2000/svg" viewBox="0 0 121.76 122.88"><defs><style>.cls-1{fill-rule:evenodd;}</style></defs><title>necklace-jewellery</title><path class="cls-1" d="M13,20.75C16.4,19.7,19.41,19,22.1,18.3,31.61,16,37,14.68,42.7,1.61A2.68,2.68,0,0,1,45.15,0H77A2.68,2.68,0,0,1,79.6,2a35.8,35.8,0,0,0,4.47,8.88,17.73,17.73,0,0,0,6,5.41l22.8,6a2.45,2.45,0,0,1,.72.31c11.46,7,8.29,20,5.54,31.27-.41,1.71-.82,3.37-1.16,5a242.92,242.92,0,0,1-9.08,32.4,189.17,189.17,0,0,1-14,30.35,2.66,2.66,0,0,1-2.31,1.34H28.9a2.68,2.68,0,0,1-2.41-1.51A222.66,222.66,0,0,1,16.1,101.15,194,194,0,0,1,7.87,79.58Q5.55,72.19,3.81,64.36C2.67,59.17,1.74,53.87,1.06,48.47L.88,47.1C-.57,36-2.13,24,13,20.75Zm86.15,3.37c-.21.85-.44,1.68-.68,2.5a7.15,7.15,0,0,1,.53.57A7.64,7.64,0,0,1,92.5,39.72a3.44,3.44,0,0,1-.45,0c-.28.39-.57.76-.86,1.13a7.22,7.22,0,0,1-7.39,9.64,7.1,7.1,0,0,1-2.69-.77c-.53.32-1.07.62-1.61.91l0,.31a6.65,6.65,0,0,1-11.7,3.73c-1.15.2-2.31.35-3.47.45l9.62,9.62a1.89,1.89,0,0,1,0,2.66L62.21,79.07a1.88,1.88,0,0,1-2.67,0L47.82,67.35a1.89,1.89,0,0,1,0-2.66l9.62-9.62c-1.16-.1-2.33-.25-3.48-.45a6.66,6.66,0,0,1-11.71-3.73l0-.31c-.54-.29-1.08-.59-1.61-.91a7.22,7.22,0,0,1-10.48-5.79,7.2,7.2,0,0,1,.41-3.08c-.3-.37-.58-.74-.87-1.13a3.26,3.26,0,0,1-.45,0,7.64,7.64,0,0,1-6.49-12.53c.17-.2.35-.39.53-.57-.28-.95-.54-1.92-.77-2.92-2.42.59-5.08,1.26-8,2.17l-.25.07C3.78,28.1,5,37.62,6.16,46.42l.18,1.38q1,7.88,2.68,15.41c1.09,5,2.42,9.91,4,14.78a189.88,189.88,0,0,0,8,21c2.84,6.32,6,12.5,9.48,18.56H91.11a184.34,184.34,0,0,0,12.8-28.15,237.07,237.07,0,0,0,8.86-31.68c.35-1.62.77-3.38,1.21-5.17,2.29-9.4,4.93-20.22-2.83-25.28l-12-3.13ZM27.67,22.4c.16.71.34,1.4.54,2.08a7.63,7.63,0,0,1,6.62,12,7.21,7.21,0,0,1,9.67,6.15,7,7,0,0,1-.35,2.89l.08,0a6.63,6.63,0,0,1,8.93-.34,6.63,6.63,0,0,1,2.32,4.22,34.73,34.73,0,0,0,10.77,0,6.67,6.67,0,0,1,7.17-5.76,6.58,6.58,0,0,1,4.09,1.88l.07,0A7.21,7.21,0,0,1,85,36.08a7.27,7.27,0,0,1,1.87.42,7.61,7.61,0,0,1-1.37-5,7.66,7.66,0,0,1,8-7q.24-.84.45-1.71l-5.37-1.4a2.74,2.74,0,0,1-.71-.25A22.81,22.81,0,0,1,79.75,14a38.75,38.75,0,0,1-4.57-8.61H46.86c-5.6,12-11,14.84-19.19,17ZM60.88,62A4,4,0,1,1,58,63.16,4,4,0,0,1,60.88,62Zm0-5L51.82,66l9.06,9.06L69.93,66,60.88,57ZM37,39.12a4.16,4.16,0,1,1-3.79,4.5A4.17,4.17,0,0,1,37,39.12Zm11.6,7.47a3.75,3.75,0,1,1-3.42,4.06,3.75,3.75,0,0,1,3.42-4.06Zm-20.36-19A4.49,4.49,0,0,1,29,36.58a4.47,4.47,0,0,1-3.28-1,4.51,4.51,0,0,1-1.58-3,4.47,4.47,0,0,1,4.09-4.86ZM84.77,39.12a4.16,4.16,0,1,0,3.79,4.5,4.15,4.15,0,0,0-3.79-4.5Zm-11.6,7.47a3.75,3.75,0,1,0,3.42,4.06,3.75,3.75,0,0,0-3.42-4.06Zm20.36-19a4.41,4.41,0,0,0-3.27,1,4.51,4.51,0,0,0-1.58,3,4.49,4.49,0,1,0,4.85-4.08Z"/></svg>