<svg xmlns="http://www.w3.org/2000/svg" version="1.1" xmlns:xlink="http://www.w3.org/1999/xlink" xmlns:svgjs="http://svgjs.dev/svgjs" width="1500" height="1500" viewBox="0 0 1500 1500"><rect width="1500" height="1500" fill="#d1abff"></rect><g transform="matrix(0.6666666666666666,0,0,0.6666666666666666,249.78425655976667,249.78425655976673)"><svg viewBox="0 0 343 343" data-background-color="#d1abff" preserveAspectRatio="xMidYMid meet" height="1500" width="1500" xmlns="http://www.w3.org/2000/svg" xmlns:xlink="http://www.w3.org/1999/xlink"><g id="tight-bounds" transform="matrix(1,0,0,1,0.0740000000000407,0.07400000000001228)"><svg viewBox="0 0 342.85155851775386 342.85155851775386" height="342.85155851775386" width="342.85155851775386"><g><svg></svg></g><g><svg viewBox="0 0 342.85155851775386 342.85155851775386" height="342.85155851775386" width="342.85155851775386"><g><path d="M0 171.426c0-94.676 76.75-171.426 171.426-171.426 94.676 0 171.426 76.75 171.426 171.426 0 94.676-76.75 171.426-171.426 171.426-94.676 0-171.426-76.75-171.426-171.426zM171.426 340.373c93.307 0 168.948-75.64 168.947-168.947 0-93.307-75.64-168.948-168.947-168.948-93.307 0-168.948 75.64-168.948 168.948 0 93.307 75.64 168.948 168.948 168.947z" data-fill-palette-color="tertiary" fill="#712689" stroke="transparent"></path><ellipse rx="164.56874808852186" ry="164.56874808852186" cx="171.42577925887693" cy="171.42577925887693" fill="#712689" stroke="transparent" stroke-width="0" fill-opacity="1" data-fill-palette-color="tertiary"></ellipse></g><g transform="matrix(1,0,0,1,64.84655864529837,80.59625442014574)"><svg viewBox="0 0 213.1584412271571 181.65904967746238" height="181.65904967746238" width="213.1584412271571"><g><svg viewBox="0 0 213.1584412271571 181.65904967746238" height="181.65904967746238" width="213.1584412271571"><g><svg viewBox="0 0 213.1584412271571 181.65904967746238" height="181.65904967746238" width="213.1584412271571"><g transform="matrix(1,0,0,1,0,108.11933348681306)"><svg viewBox="0 0 213.1584412271571 73.53971619064932" height="73.53971619064932" width="213.1584412271571"><g id="textblocktransform"><svg viewBox="0 0 213.1584412271571 73.53971619064932" height="73.53971619064932" width="213.1584412271571" id="textblock"><g><svg viewBox="0 0 213.1584412271571 44.45770203212425" height="44.45770203212425" width="213.1584412271571"><g transform="matrix(1,0,0,1,0,0)"><svg width="213.1584412271571" viewBox="3.95 -33.15 238.03370312500002 49.65" height="44.45770203212425" data-palette-color="#d1abff"><path d="M4-15.35Q3.95-15.7 3.95-16.5L3.95-16.5Q3.95-18.45 4.35-20.3 4.75-22.15 5.5-24.35L5.5-24.35Q6.25-26.4 8.35-28.45 10.45-30.5 13.05-31.83 15.65-33.15 17.75-33.15L17.75-33.15Q19.9-33.15 21.95-31.58 24-30 24.55-28L24.55-28Q24.65-27.4 24.65-27.2L24.65-27.2Q24.65-26.45 24.23-26.08 23.8-25.7 23.1-25.7L23.1-25.7Q22.55-25.7 22.25-25.75L22.25-25.75Q22.1-25.75 21.8-25.95L21.8-25.95Q20.35-26.75 19-26.75L19-26.75Q16.45-26.75 13.95-24.1L13.95-24.1Q9.7-19.65 9.7-13.5L9.7-13.5Q9.7-11.3 10.15-9.25L10.15-9.25Q10.65-6.95 11.93-5.88 13.2-4.8 15.35-4.8L15.35-4.8Q16.1-4.8 17-4.95L17-4.95Q20.15-5.35 22.8-6.88 25.45-8.4 28.65-10.95L28.65-10.95Q29.4-11.55 31.3-13.45L31.3-13.45 32.3-14.5Q32.95-15.15 33.43-15.43 33.9-15.7 34.3-15.7L34.3-15.7Q34.95-15.7 35.9-15.05L35.9-15.05Q36.95-14.3 36.95-13.15L36.95-13.15Q36.95-12.35 36.4-11.65L36.4-11.65Q36.2-11.3 35.3-10.03 34.4-8.75 33.55-7.75 32.7-6.75 31.85-6.05L31.85-6.05Q27.25-2 22.25-0.6L22.25-0.6Q20.05 0 17.85 0L17.85 0Q13.8 0 10.68-2.05 7.55-4.1 5.8-7.43 4.05-10.75 4-14.35L4-14.35 4-15.35ZM49.4-3.35Q47.85-2.4 45.85-2.4L45.85-2.4Q43.65-2.4 41.62-3.53 39.6-4.65 38.4-6.75 37.2-8.85 37.4-11.55L37.4-11.55 37.65-12.75Q37.95-14.55 38.15-15.4L38.15-15.4Q38.6-17.25 39.95-18 41.3-18.75 43.55-19.2L43.55-19.2Q45-19.5 46.4-19.5L46.4-19.5Q50.8-19.5 53.8-16.55L53.8-16.55Q55.4-14.95 55.4-12.65L55.4-12.65Q55.4-10.4 53.75-7.8L53.75-7.8Q51.85-4.85 49.4-3.35L49.4-3.35ZM45.2-16.95Q44.4-15 43.5-12.1L43.5-12.1 43-10.6 43.35-10.45Q43.35-10.1 43.37-9.38 43.4-8.65 43.55-8.15L43.55-8.15Q44.1-6.6 44.8-6.25L44.8-6.25Q45.1-6.1 45.67-6.4 46.25-6.7 46.7-7.1L46.7-7.1Q47.4-7.7 48.95-9.6L48.95-9.6Q50.1-10.9 50.1-12.7L50.1-12.7Q50.1-14.25 49.22-15.5 48.35-16.75 46.8-17.2L46.8-17.2Q46.65-17.25 46.25-17.25L46.25-17.25Q45.3-17.25 45.2-16.95L45.2-16.95ZM84.35-13.05Q84.25-14.95 82.75-15.85L82.75-15.85Q81.55-15.55 80.8-15.1 80.05-14.65 79.7-14.23 79.35-13.8 78.45-12.6L78.45-12.6Q78.15-12.2 77.82-11.5 77.5-10.8 77.45-10.65L77.45-10.65Q77.3-10.3 77.3-9.9L77.3-9.9Q77.3-9.6 77.42-8.97 77.55-8.35 77.5-8L77.5-8Q77.45-7.25 77.55-5.65L77.55-5.65 77.6-4.1Q77.6-3.4 77.55-3.05L77.55-3.05Q77.45-2.25 77.05-1.65 76.65-1.05 75.95-1.05L75.95-1.05Q75.7-1.05 75.3-1.2L75.3-1.2Q74.95-1.3 74.15-1.55 73.35-1.8 72.9-2.33 72.45-2.85 72.45-3.85L72.45-3.85Q72.45-6.45 71.95-11.65L71.95-11.65Q71.85-12.2 71.75-13.5L71.75-13.5Q71.7-14.05 71.25-14.35 70.8-14.65 70.15-14.65L70.15-14.65Q69.1-14.65 68.55-14.1L68.55-14.1Q66.25-12.8 65.2-11.15 64.15-9.5 64.15-6.9L64.15-6.9 64.2-5.2Q64.2-3.55 63.35-2.15L63.35-2.15Q63.1-1.7 62.32-1.38 61.55-1.05 61-1.15L61-1.15Q60.5-1.2 59.97-1.83 59.45-2.45 59.45-2.95L59.45-2.95Q59.3-7.15 59.3-11.3L59.3-11.3Q59.3-15.05 59.4-16.9L59.4-16.9Q59.45-17.85 60.05-18.4 60.65-18.95 61.5-18.95L61.5-18.95Q62.6-18.95 63.45-18.15L63.45-18.15Q63.9-17.3 64.2-16.93 64.5-16.55 64.85-16.55L64.85-16.55Q65.15-16.55 65.55-16.88 65.95-17.2 66.65-17.95L66.65-17.95Q68.3-19.75 70.1-19.75L70.1-19.75Q72.05-19.75 74.8-17.8L74.8-17.8Q75-17.65 75.35-17.38 75.7-17.1 75.95-17.1L75.95-17.1Q76.3-17.1 77.05-17.9L77.05-17.9Q79.85-20.5 84.15-20.75L84.15-20.75Q85.5-20.8 86.87-19.73 88.25-18.65 88.6-17.15L88.6-17.15Q89.2-14.6 89.45-11.15L89.45-11.15Q89.75-5.95 89.7-3.35L89.7-3.35Q89.65-2.15 89.05-1.48 88.45-0.8 87.5-0.8L87.5-0.8Q86.75-0.8 85.9-1.25L85.9-1.25Q85.55-1.4 85.25-1.8 84.95-2.2 84.95-2.5L84.95-2.5 84.65-7.8Q84.6-8.65 84.55-9.98 84.5-11.3 84.35-13.05L84.35-13.05ZM119.74-13.05Q119.64-14.95 118.14-15.85L118.14-15.85Q116.94-15.55 116.19-15.1 115.44-14.65 115.09-14.23 114.74-13.8 113.84-12.6L113.84-12.6Q113.54-12.2 113.22-11.5 112.89-10.8 112.84-10.65L112.84-10.65Q112.69-10.3 112.69-9.9L112.69-9.9Q112.69-9.6 112.82-8.97 112.94-8.35 112.89-8L112.89-8Q112.84-7.25 112.94-5.65L112.94-5.65 112.99-4.1Q112.99-3.4 112.94-3.05L112.94-3.05Q112.84-2.25 112.44-1.65 112.04-1.05 111.34-1.05L111.34-1.05Q111.09-1.05 110.69-1.2L110.69-1.2Q110.34-1.3 109.54-1.55 108.74-1.8 108.29-2.33 107.84-2.85 107.84-3.85L107.84-3.85Q107.84-6.45 107.34-11.65L107.34-11.65Q107.24-12.2 107.14-13.5L107.14-13.5Q107.09-14.05 106.64-14.35 106.19-14.65 105.54-14.65L105.54-14.65Q104.49-14.65 103.94-14.1L103.94-14.1Q101.64-12.8 100.59-11.15 99.54-9.5 99.54-6.9L99.54-6.9 99.59-5.2Q99.59-3.55 98.74-2.15L98.74-2.15Q98.49-1.7 97.72-1.38 96.94-1.05 96.39-1.15L96.39-1.15Q95.89-1.2 95.37-1.83 94.84-2.45 94.84-2.95L94.84-2.95Q94.69-7.15 94.69-11.3L94.69-11.3Q94.69-15.05 94.79-16.9L94.79-16.9Q94.84-17.85 95.44-18.4 96.04-18.95 96.89-18.95L96.89-18.95Q97.99-18.95 98.84-18.15L98.84-18.15Q99.29-17.3 99.59-16.93 99.89-16.55 100.24-16.55L100.24-16.55Q100.54-16.55 100.94-16.88 101.34-17.2 102.04-17.95L102.04-17.95Q103.69-19.75 105.49-19.75L105.49-19.75Q107.44-19.75 110.19-17.8L110.19-17.8Q110.39-17.65 110.74-17.38 111.09-17.1 111.34-17.1L111.34-17.1Q111.69-17.1 112.44-17.9L112.44-17.9Q115.24-20.5 119.54-20.75L119.54-20.75Q120.89-20.8 122.27-19.73 123.64-18.65 123.99-17.15L123.99-17.15Q124.59-14.6 124.84-11.15L124.84-11.15Q125.14-5.95 125.09-3.35L125.09-3.35Q125.04-2.15 124.44-1.48 123.84-0.8 122.89-0.8L122.89-0.8Q122.14-0.8 121.29-1.25L121.29-1.25Q120.94-1.4 120.64-1.8 120.34-2.2 120.34-2.5L120.34-2.5 120.04-7.8Q119.99-8.65 119.94-9.98 119.89-11.3 119.74-13.05L119.74-13.05ZM139.19-7.8Q138.69-7.5 137.74-7.5L137.74-7.5Q137.39-7.5 136.89-7.55 136.39-7.6 136.04-7.55L136.04-7.55Q136.44-5.9 137.94-4.88 139.44-3.85 141.29-3.85L141.29-3.85Q142.89-3.85 144.14-4.55L144.14-4.55Q145.99-5.5 147.34-6.8L147.34-6.8Q148.29-7.75 149.14-7.75L149.14-7.75Q149.69-7.75 150.09-7.2L150.09-7.2Q150.49-6.55 150.49-5.6L150.49-5.6Q150.49-4.6 150.09-4.05L150.09-4.05Q148.79-2.05 146.72-1.3 144.64-0.55 141.89-0.55L141.89-0.55Q139.04-0.55 136.39-1.8 133.74-3.05 131.87-5.23 129.99-7.4 129.39-10.05L129.39-10.05Q128.99-11.6 128.99-13.1L128.99-13.1Q128.99-15.45 130.31-16.9 131.64-18.35 134.59-19.65L134.59-19.65Q137.29-20.8 139.59-20.8L139.59-20.8Q141.24-20.8 142.79-20.3L142.79-20.3Q147.59-18.8 147.59-16.2L147.59-16.2Q147.59-14.55 145.64-12.2L145.64-12.2Q144.69-11.1 143.39-10.25 142.09-9.4 140.87-8.72 139.64-8.05 139.19-7.8L139.19-7.8ZM141.29-17.05Q141.24-17.3 140.91-17.48 140.59-17.65 140.54-17.7L140.54-17.7Q139.19-17.8 137.79-16.93 136.39-16.05 135.47-14.7 134.54-13.35 134.54-12.1L134.54-12.1 134.59-11.7Q134.64-11.5 135.12-11.2 135.59-10.9 135.69-11L135.69-11Q139.24-13.65 141.04-15.25L141.04-15.25Q141.34-15.55 141.34-16.35L141.34-16.35Q141.34-16.85 141.29-17.05L141.29-17.05ZM159.99-21.2Q160.14-20.7 160.04-19.65L160.04-19.65 159.44-13.75Q159.69-13.95 160.19-15.18 160.69-16.4 161.14-17.18 161.59-17.95 161.84-18.2L161.84-18.2Q164.19-20.45 167.14-20.9 170.09-21.35 173.64-21.3L173.64-21.3Q173.99-21.3 174.41-21.03 174.84-20.75 174.84-20.58 174.84-20.4 174.54-20.03 174.24-19.65 173.99-19.55L173.99-19.55Q170.99-18.55 168.71-17.25 166.44-15.95 164.79-13.85L164.79-13.85Q160.89-8.9 160.29-3.65L160.29-3.65Q160.14-2.25 159.44-1.78 158.74-1.3 157.49-1.3L157.49-1.3Q156.09-1.3 154.99-2.5 153.89-3.7 153.89-5.15L153.89-5.15Q153.94-10.45 153.94-21.05L153.94-21.05Q153.94-22.5 154.59-23.08 155.24-23.65 156.94-23.65L156.94-23.65Q158.19-23.65 159.06-22.95 159.94-22.25 159.99-21.2L159.99-21.2ZM192.04-5.1Q190.54-3.4 188.99-2.43 187.44-1.45 185.54-1.45L185.54-1.45Q185.14-1.45 184.44-1.55L184.44-1.55 183.44-1.5Q177.14-1.45 174.24-7.5L174.24-7.5Q173.59-8.9 173.59-10.85L173.59-10.85Q173.59-12.55 174.09-14.1 174.59-15.65 175.49-16.65L175.49-16.65 176.44-17.8Q177.14-18.7 177.54-19.05L177.54-19.05Q179.29-20.75 182.19-20.75L182.19-20.75Q183.69-20.75 185.14-20.25 186.59-19.75 187.69-18.9L187.69-18.9Q187.89-18.75 188.09-18.28 188.29-17.8 188.29-17.5L188.29-17.5Q188.29-17.1 187.69-16.63 187.09-16.15 186.59-16.2L186.59-16.2Q183.19-16.6 181.14-14.58 179.09-12.55 179.09-9.05L179.09-9.05Q179.09-6.75 180.06-5.8 181.04-4.85 183.29-4.85L183.29-4.85Q184.69-4.85 185.94-5.43 187.19-6 188.84-7.05L188.84-7.05 189.79-7.65Q190.29-7.9 191.11-7.98 191.94-8.05 192.39-8.1L192.39-8.1Q192.34-7.65 192.36-7.23 192.39-6.8 192.39-6.55L192.39-6.55Q192.39-5.45 192.04-5.1L192.04-5.1ZM201.58-23.3Q201.48-23 200.86-22.65 200.23-22.3 199.83-22L199.83-22 198.43-22.75Q196.38-23.85 195.63-24.5L195.63-24.5Q195.23-24.8 195.23-25.25L195.23-25.25Q195.23-25.55 195.46-25.78 195.68-26 196.13-26L196.13-26Q198.08-26 200.88-25L200.88-25Q201.18-24.95 201.43-24.33 201.68-23.7 201.58-23.3L201.58-23.3ZM197.08-14Q197.23-14.65 197.28-14.95 197.33-15.25 197.33-15.6L197.33-15.6Q197.33-16.3 197.76-16.7 198.18-17.1 199.38-17.1L199.38-17.1Q200.78-17.1 201.86-16.23 202.93-15.35 203.18-13.95L203.18-13.95Q203.33-13.25 203.38-12.4 203.43-11.55 203.43-11.3L203.43-11.3 204.13-2.75Q204.28-1.4 203.76-0.68 203.23 0.05 201.78 0.05L201.78 0.05Q200.53 0.05 199.66-0.65 198.78-1.35 198.58-2.45L198.58-2.45 197.28-13.05 197.08-14ZM215.93-15.7Q215.93-13.9 216.11-13.35 216.28-12.8 216.98-12.8L216.98-12.8Q217.63-12.8 219.03-13.1L219.03-13.1 220.18-13.1Q223.03-13.1 223.68-11.85L223.68-11.85Q223.93-11.75 224.18-11.33 224.43-10.9 224.53-10.75L224.53-10.75Q224.33-10.6 223.93-10.28 223.53-9.95 223.18-9.9L223.18-9.9Q222.03-9.65 219.73-9.25L219.73-9.25Q219.28-9.2 218.13-9L218.13-9Q216.33-8.65 216.33-6.9L216.33-6.9Q216.33-6.65 216.43-5.95L216.43-5.95Q217.03-3.25 217.43-1.23 217.83 0.8 218.08 2.15L218.08 2.15 218.98 6.55Q219.48 8.95 219.48 10.25L219.48 10.25Q219.48 11.2 219.03 11.68 218.58 12.15 217.28 12.15L217.28 12.15Q216.18 12.15 215.63 11.6 215.08 11.05 214.83 9.85L214.83 9.85Q214.38 7.55 213.28 2.95L213.28 2.95 211.68-5.35Q211.58-8.25 208.83-8.25L208.83-8.25Q207.93-8.25 207.58-8.55L207.58-8.55Q207.28-8.8 207.03-9.13 206.78-9.45 206.78-9.75L206.78-9.75Q206.78-10 207.11-10.33 207.43-10.65 207.73-10.7L207.73-10.7Q209.53-10.95 210.16-11.7 210.78-12.45 210.83-14.05L210.83-14.05 210.93-17.25Q210.98-19.35 211.08-21.55 211.18-23.75 211.43-25.45L211.43-25.45Q211.63-26.9 212.68-27.58 213.73-28.25 215.58-28.25L215.58-28.25Q216.38-28.25 216.83-28.2L216.83-28.2Q217.88-28.1 219.23-27.23 220.58-26.35 220.68-25.35L220.68-25.35Q221.18-22.5 218.58-22.25L218.58-22.25Q216.88-22.6 216.58-21.85 216.28-21.1 216.18-20L216.18-20Q216.18-19.35 216.08-18.15L216.08-18.15Q215.93-16.95 215.93-15.7L215.93-15.7ZM225.98 14.1Q226.33 14 226.88 13.83 227.43 13.65 227.83 13.6L227.83 13.6Q231.43 13.5 233.1 12.1 234.78 10.7 235.23 7.15L235.23 7.15Q235.68 3.6 236.13-3.5L236.13-3.5 236.33-6.7Q236.38-7.85 235.9-8.47 235.43-9.1 234.18-9.25L234.18-9.25Q231.48-9.55 229.5-11.35 227.53-13.15 226.78-15.9L226.78-15.9Q226.53-16.75 226.23-17.9L226.23-17.9Q225.63-20.1 225.38-21.2L225.38-21.2 225.38-21.3Q225.38-21.6 225.58-21.98 225.78-22.35 225.98-22.5L225.98-22.5Q226.78-23.05 227.83-23.05L227.83-23.05Q229.23-23.05 230.33-22.08 231.43-21.1 231.58-19.65L231.58-19.65Q231.83-17.4 232.43-14.75L232.43-14.75Q232.68-13.7 233.38-13.7L233.38-13.7Q233.93-13.7 234.33-14.25L234.33-14.25Q235.63-15.9 236.33-17.45L236.33-17.45Q237.18-19.35 238.83-19.35L238.83-19.35Q239.28-19.35 239.48-19.3L239.48-19.3Q242.08-18.8 241.98-16.1L241.98-16.1 241.83-11.45Q241.63-5.25 241.38-2.2L241.38-2.2 241.23-0.2Q240.93 3.9 240.65 6.18 240.38 8.45 239.78 10.75L239.78 10.75Q239.03 13.65 237.03 15.08 235.03 16.5 232.33 16.5L232.33 16.5Q230.18 16.5 228.03 15.65L228.03 15.65Q227.58 15.45 226.98 15.13 226.38 14.8 226.08 14.6L226.08 14.6 225.98 14.1Z" opacity="1" transform="matrix(1,0,0,1,0,0)" fill="#d1abff" class="wordmark-text-0" data-fill-palette-color="quaternary" id="text-0"></path></svg></g></svg></g><g transform="matrix(1,0,0,1,0,50.945147743459955)"><svg viewBox="0 0 213.1584412271571 22.594568447189367" height="22.594568447189367" width="213.1584412271571"><g transform="matrix(1,0,0,1,0,0)"><svg width="213.1584412271571" viewBox="4.65 -41.55 564.9 56" height="22.594568447189367" data-palette-color="#d1abff"><path d="M9.5 3.8L9.5 3.8Q6.65 2.95 5.65 2.18 4.65 1.4 4.65 0.05L4.65 0.05Q4.65-1.45 5.35-4.17 6.05-6.9 7.18-10.25 8.3-13.6 9.75-17.25 11.2-20.9 12.7-24.25 14.2-27.6 15.63-30.38 17.05-33.15 18.15-34.7L18.15-34.7 17.8-36.8Q18.5-36.8 19.75-36.45 21-36.1 22.28-35.6 23.55-35.1 24.53-34.58 25.5-34.05 25.6-33.7L25.6-33.7Q25.35-32.5 25.2-30.08 25.05-27.65 25.05-24.9L25.05-24.9Q25.05-19.45 25.48-14.23 25.9-9 27.45-3.6L27.45-3.6Q28.25-7.6 29.18-11.58 30.1-15.55 31.1-19.18 32.1-22.8 33.1-25.9 34.1-29 35.02-31.33 35.95-33.65 36.75-34.98 37.55-36.3 38.2-36.4L38.2-36.4Q38.75-36.3 39.4-35.98 40.05-35.65 40.65-35.2 41.25-34.75 41.75-34.2 42.25-33.65 42.55-33.1L42.55-33.1Q40.95-32.45 39.38-30.05 37.8-27.65 36.38-24.23 34.95-20.8 33.73-16.8 32.5-12.8 31.58-8.93 30.65-5.05 30.13-1.75 29.6 1.55 29.55 3.55L29.55 3.55Q29.55 3.65 29.6 3.7L29.6 3.7Q29.45 3.75 29.28 3.75 29.1 3.75 28.95 3.75L28.95 3.75Q26.65 3.75 24.88 3.18 23.1 2.6 22.55 1.55L22.55 1.55Q21.5-2.65 20.8-6.55 20.1-10.45 19.63-14.35 19.15-18.25 18.88-22.23 18.6-26.2 18.45-30.55L18.45-30.55Q17.5-29.05 16.45-26.63 15.4-24.2 14.4-21.3 13.4-18.4 12.48-15.2 11.55-12 10.85-8.95 10.15-5.9 9.75-3.18 9.35-0.45 9.35 1.55L9.35 1.55Q9.35 2.6 9.38 3.05 9.4 3.5 9.5 3.8ZM55.55-20.7L55.55-20.7Q55.35-17.6 54.45-15.38 53.55-13.15 51.88-11.48 50.2-9.8 47.8-8.45 45.4-7.1 42.2-5.85L42.2-5.85Q42.2-5.55 42.18-5.23 42.15-4.9 42.15-4.55L42.15-4.55Q42.15-3.9 42.25-3.2 42.35-2.5 42.6-1.9 42.85-1.3 43.3-0.93 43.75-0.55 44.45-0.55L44.45-0.55Q45.8-0.55 47.1-1.15 48.4-1.75 49.58-2.63 50.75-3.5 51.78-4.53 52.8-5.55 53.6-6.4L53.6-6.4Q54.1-5.95 54.45-5.55L54.45-5.55Q52.2-2.55 49.53-0.58 46.85 1.4 44.45 1.95L44.45 1.95Q41 1.55 39.08-0.58 37.15-2.7 37.15-5.7L37.15-5.7Q37.15-7.75 37.73-9.88 38.3-12 39.33-13.98 40.35-15.95 41.73-17.7 43.1-19.45 44.68-20.75 46.25-22.05 47.93-22.8 49.6-23.55 51.25-23.55L51.25-23.55Q53.55-23.25 55.55-20.7ZM52.1-19.05L52.1-19.05Q50.75-18.85 49.3-17.95 47.85-17.05 46.58-15.55 45.3-14.05 44.25-12.05 43.2-10.05 42.6-7.75L42.6-7.75Q46.6-9.75 49.25-12.68 51.9-15.6 52.1-19.05ZM60.25-17.7L60.25-17.7Q60.25-18.6 60.38-19.4 60.5-20.2 60.9-20.78 61.3-21.35 62-21.68 62.7-22 63.85-22L63.85-22Q64.55-22 65.43-21.85 66.3-21.7 66.7-21.3L66.7-21.3Q66.5-20.45 66.38-19.8 66.25-19.15 66.18-18.38 66.1-17.6 66.05-16.53 66-15.45 65.95-13.75L65.95-13.75Q65.85-10.35 65.63-7.68 65.4-5 64.6-2.35L64.6-2.35Q64.6-2.15 64.75-2.15L64.75-2.15Q65.5-2.7 66.45-3.75 67.4-4.8 68.45-6.13 69.5-7.45 70.55-8.95 71.6-10.45 72.5-11.9L72.5-11.9Q73.7-14 75.15-17.15 76.6-20.3 77.55-23.9L77.55-23.9Q77.85-23.9 78.33-23.78 78.8-23.65 79.28-23.48 79.75-23.3 80.13-23.1 80.5-22.9 80.65-22.75L80.65-22.75Q80.55-20.6 79.63-18.35 78.7-16.1 77.4-14 76.1-11.9 74.65-10.05 73.2-8.2 72-6.85L72-6.85Q69.6-4.05 67.18-1.85 64.75 0.35 61.4 2.4L61.4 2.4Q60.1 1.9 59.35 1.07 58.6 0.25 58.6-0.65L58.6-0.65Q58.6-1.25 58.88-2.02 59.15-2.8 59.5-4.03 59.85-5.25 60.13-7.1 60.4-8.95 60.4-11.8L60.4-11.8Q60.4-13.45 60.33-15.13 60.25-16.8 60.25-17.7ZM97.8-20.7L97.8-20.7Q97.6-17.6 96.7-15.38 95.8-13.15 94.13-11.48 92.45-9.8 90.05-8.45 87.65-7.1 84.45-5.85L84.45-5.85Q84.45-5.55 84.43-5.23 84.4-4.9 84.4-4.55L84.4-4.55Q84.4-3.9 84.5-3.2 84.6-2.5 84.85-1.9 85.1-1.3 85.55-0.93 86-0.55 86.7-0.55L86.7-0.55Q88.05-0.55 89.35-1.15 90.65-1.75 91.83-2.63 93-3.5 94.03-4.53 95.05-5.55 95.85-6.4L95.85-6.4Q96.35-5.95 96.7-5.55L96.7-5.55Q94.45-2.55 91.78-0.58 89.1 1.4 86.7 1.95L86.7 1.95Q83.25 1.55 81.33-0.58 79.4-2.7 79.4-5.7L79.4-5.7Q79.4-7.75 79.98-9.88 80.55-12 81.58-13.98 82.6-15.95 83.98-17.7 85.35-19.45 86.93-20.75 88.5-22.05 90.18-22.8 91.85-23.55 93.5-23.55L93.5-23.55Q95.8-23.25 97.8-20.7ZM94.35-19.05L94.35-19.05Q93-18.85 91.55-17.95 90.1-17.05 88.83-15.55 87.55-14.05 86.5-12.05 85.45-10.05 84.85-7.75L84.85-7.75Q88.85-9.75 91.5-12.68 94.15-15.6 94.35-19.05ZM98.9-1L98.9-1Q99.15-2.45 99.78-4.83 100.4-7.2 101.25-9.88 102.1-12.55 103.05-15.25 104-17.95 104.9-20.1L104.9-20.1Q105.55-21.65 106.05-22.53 106.55-23.4 107.15-24L107.15-24Q107.85-23.9 108.6-23.65 109.35-23.4 110.05-23.05 110.75-22.7 111.3-22.33 111.85-21.95 112.15-21.6L112.15-21.6Q110.8-20 109.78-17.95 108.75-15.9 107.7-12.7L107.7-12.7Q110.4-15.1 112.48-17.3 114.55-19.5 116.35-22.2L116.35-22.2Q116.65-22.45 117.4-22.45L117.4-22.45Q118.1-22.45 118.75-22.23 119.4-22 119.65-21.6L119.65-21.6Q118.75-19.2 118.75-16.85L118.75-16.85Q118.75-14.65 119.4-13.55L119.4-13.55Q119.35-13.25 118.73-12.4 118.1-11.55 117.35-10.8L117.35-10.8Q116-11.5 114.95-12.73 113.9-13.95 113.4-15.4L113.4-15.4Q111.05-13.75 109.4-12.18 107.75-10.6 106.58-8.68 105.4-6.75 104.58-4.25 103.75-1.75 103 1.7L103 1.7Q102.55 1.65 101.93 1.38 101.3 1.1 100.68 0.7 100.05 0.3 99.55-0.15 99.05-0.6 98.9-1ZM151.55-33.65L151.55-33.65Q149.35-30.7 147.55-27.15 145.75-23.6 144.48-19.88 143.2-16.15 142.53-12.53 141.85-8.9 141.85-5.75L141.85-5.75Q141.85-1.85 143-0.1 144.15 1.65 146.95 1.65L146.95 1.65Q150.2 1.65 152.65-0.63 155.1-2.9 157.25-6.9L157.25-6.9Q158.65-9.5 159.65-12.6 160.65-15.7 161.28-18.98 161.9-22.25 162.2-25.58 162.5-28.9 162.5-31.95L162.5-31.95Q162.5-33.9 162.45-34.8 162.4-35.7 162.3-36.25L162.3-36.25Q162.45-36.25 163.05-36.15 163.65-36.05 164.43-35.9 165.2-35.75 165.98-35.5 166.75-35.25 167.3-34.95L167.3-34.95Q167.05-31.15 166.38-27.1 165.7-23.05 164.6-19.1 163.5-15.15 162.05-11.5 160.6-7.85 158.8-4.95L158.8-4.95Q156.15-0.65 152.85 1.78 149.55 4.2 145.05 4.2L145.05 4.2Q140.45 4.2 137.9 1.53 135.35-1.15 135.35-6.6L135.35-6.6Q135.35-9.75 136.05-13.73 136.75-17.7 137.93-21.83 139.1-25.95 140.65-29.88 142.2-33.8 143.9-36.9L143.9-36.9Q144.75-36.85 145.9-36.55 147.05-36.25 148.15-35.77 149.25-35.3 150.18-34.73 151.1-34.15 151.55-33.65ZM174.45-24.25L174.45-24.25Q175.75-23.85 176.9-22.48 178.05-21.1 178.6-19.45L178.6-19.45Q178.05-18.1 176.9-16.2 175.75-14.3 174.6-12.33 173.45-10.35 172.53-8.58 171.6-6.8 171.45-5.65L171.45-5.65Q172.25-6.5 173.23-7.63 174.2-8.75 175.13-9.88 176.05-11 176.85-11.93 177.65-12.85 178.1-13.3L178.1-13.3Q179.05-14.3 180.35-15.63 181.65-16.95 183.08-18.13 184.5-19.3 185.95-20.13 187.4-20.95 188.6-20.95L188.6-20.95Q189.9-20.95 190.78-20.08 191.65-19.2 192.15-18.25L192.15-18.25Q192.15-18.15 191.78-17.98 191.4-17.8 190.7-17L190.7-17Q190-16.1 189.13-14.53 188.25-12.95 187.43-11.13 186.6-9.3 186.05-7.4 185.5-5.5 185.5-3.95L185.5-3.95Q185.5-2.7 185.83-2.35 186.15-2 186.75-2L186.75-2Q187.3-2 187.9-2.25 188.5-2.5 188.85-2.5L188.85-2.5Q189.05-2.4 189.18-2.08 189.3-1.75 189.3-1.5L189.3-1.5Q188.9-1.15 188.35-0.8 187.8-0.45 187.2-0.15 186.6 0.15 186.03 0.35 185.45 0.55 185 0.55L185 0.55Q183.55 0.55 182.63 0.13 181.7-0.3 181.18-1 180.65-1.7 180.45-2.68 180.25-3.65 180.25-4.75L180.25-4.75Q180.25-5.35 180.35-6.1 180.45-6.85 180.75-7.88 181.05-8.9 181.6-10.33 182.15-11.75 183-13.75L183-13.75Q182.9-13.75 181.65-13.05 180.4-12.35 178.95-10.9L178.95-10.9Q176.6-8.65 174.73-6.45 172.85-4.25 170.9-1.55L170.9-1.55Q169.8 0 168.98 1.07 168.15 2.15 167.55 2.5L167.55 2.5Q166.5 1.9 166 0.83 165.5-0.25 165.25-1.4L165.25-1.4Q165.25-2.35 165.53-3.8 165.8-5.25 166.28-7.03 166.75-8.8 167.45-10.75 168.15-12.7 169-14.65L169-14.65Q170.9-19.05 172.48-21.55 174.05-24.05 174.45-24.25ZM210.6-19.9L210.6-19.9Q210.55-18.95 210.28-17.93 210-16.9 209.6-16.07 209.2-15.25 208.75-14.7 208.3-14.15 207.9-14.15L207.9-14.15Q207.35-14.2 207.25-14.9L207.25-14.9Q207.25-15.05 207.38-15.38 207.5-15.7 207.65-16.1 207.8-16.5 207.93-16.9 208.05-17.3 208.05-17.6L208.05-17.6Q208.05-18.3 207.73-18.78 207.4-19.25 206.85-19.25L206.85-19.25Q204.85-19.25 203.8-16.75 202.75-14.25 202.75-9.4L202.75-9.4Q202.75-8.9 202.8-8.8L202.8-8.8Q203.85-8.85 204.68-8.88 205.5-8.9 206.3-8.9L206.3-8.9Q206.35-8.8 206.35-8.5L206.35-8.5Q206.35-8.05 206.15-7.85L206.15-7.85Q205-7.6 204.33-7.43 203.65-7.25 203.3-7.1 202.95-6.95 202.88-6.78 202.8-6.6 202.8-6.3L202.8-6.3Q202.8-5.9 202.83-5.5 202.85-5.1 202.85-4.5L202.85-4.5Q202.85-0.3 200.58 2.25 198.3 4.8 194.25 5.2L194.25 5.2Q193.55 5.15 192.8 4.8 192.05 4.45 191.38 3.9 190.7 3.35 190.2 2.68 189.7 2 189.5 1.3L189.5 1.3Q189.5-0.6 190.3-2.33 191.1-4.05 192.48-5.38 193.85-6.7 195.73-7.53 197.6-8.35 199.8-8.5L199.8-8.5Q199.8-9.75 199.55-10.95 199.3-12.15 199.03-13.28 198.75-14.4 198.5-15.48 198.25-16.55 198.25-17.6L198.25-17.6Q198.25-18.95 198.8-20.28 199.35-21.6 200.25-22.73 201.15-23.85 202.35-24.65 203.55-25.45 204.85-25.75L204.85-25.75Q205.4-25.6 206.33-24.88 207.25-24.15 208.15-23.25 209.05-22.35 209.75-21.43 210.45-20.5 210.6-19.9ZM194.1 2.9L194.1 2.9Q195.3 2.4 196.38 1.45 197.45 0.5 198.25-0.7 199.05-1.9 199.53-3.25 200-4.6 200-5.9L200-5.9Q199-5.75 197.8-4.98 196.6-4.2 195.55-3.13 194.5-2.05 193.8-0.9 193.1 0.25 193.1 1.1L193.1 1.1Q193.1 2.2 194.1 2.9ZM227.9-20.2L227.9-20.2Q228.4-20.2 229.08-20.03 229.75-19.85 230.3-19.58 230.85-19.3 231.23-19 231.6-18.7 231.6-18.45L231.6-18.45Q230.6-16.35 229.75-14.23 228.9-12.1 228.3-10.15 227.7-8.2 227.38-6.5 227.05-4.8 227.05-3.55L227.05-3.55Q227.05-2.15 227.35-1.23 227.65-0.3 228.35 0.1L228.35 0.1Q227.75 0.5 226.8 0.75 225.85 1 225.1 1L225.1 1Q222.4 1 222.4-2.7L222.4-2.7Q222.4-5.55 224.3-10.5L224.3-10.5Q223.3-8.2 222-6.18 220.7-4.15 219.35-2.6 218-1.05 216.63-0.08 215.25 0.9 214.1 1.1L214.1 1.1Q212.25 1 211.1-0.68 209.95-2.35 209.95-4.95L209.95-4.95Q209.95-7.75 211.15-10.85 212.35-13.95 214.23-16.6 216.1-19.25 218.3-21.03 220.5-22.8 222.55-22.9L222.55-22.9Q223.05-22.75 223.68-22.3 224.3-21.85 224.88-21.25 225.45-20.65 225.85-20.03 226.25-19.4 226.3-18.95L226.3-18.95Q224.3-18.65 222.18-17 220.05-15.35 218.33-13.03 216.6-10.7 215.5-8.05 214.4-5.4 214.4-3.1L214.4-3.1Q214.4-2.15 215.1-1.9L215.1-1.9Q216.55-2.2 218.45-4.38 220.35-6.55 223.05-11.1L223.05-11.1Q223.55-12 224.18-13.1 224.8-14.2 225.45-15.4 226.1-16.6 226.73-17.82 227.35-19.05 227.9-20.2ZM239.1-19.15L236.25-19.15Q236-19.45 235.8-20.43 235.6-21.4 235.6-22.1L235.6-22.1Q236.9-22 238.1-21.93 239.3-21.85 240.3-21.8L240.3-21.8Q241.05-23.3 241.93-24.78 242.8-26.25 243.63-27.48 244.45-28.7 245.18-29.55 245.9-30.4 246.3-30.65L246.3-30.65Q246.8-30.65 247.58-30.48 248.35-30.3 249.15-30.03 249.95-29.75 250.6-29.45 251.25-29.15 251.5-28.85L251.5-28.85Q250-26.95 248.93-25.33 247.85-23.7 246.6-21.6L246.6-21.6Q247.6-21.6 248.63-21.65 249.65-21.7 250.7-21.8L250.7-21.8Q250.95-21.55 251.1-21.18 251.25-20.8 251.25-20.4L251.25-20.4Q248.8-19.5 245.3-19.4L245.3-19.4Q244.05-17 243.08-14.63 242.1-12.25 241.43-10.05 240.75-7.85 240.38-5.9 240-3.95 240-2.4L240-2.4Q240-0.2 241.65 0.05L241.65 0.05Q243.15-0.15 244.5-0.7 245.85-1.25 246.9-2.1L246.9-2.1Q247.2-1.65 247.25-1.35L247.25-1.35Q246.95-0.9 246.23-0.3 245.5 0.3 244.65 0.88 243.8 1.45 243 1.85 242.2 2.25 241.8 2.3L241.8 2.3Q240.55 2.25 239.3 1.75 238.05 1.25 237.03 0.5 236-0.25 235.35-1.18 234.7-2.1 234.7-3L234.7-3Q234.7-4.2 235.03-6.03 235.35-7.85 235.95-10 236.55-12.15 237.35-14.5 238.15-16.85 239.1-19.15L239.1-19.15ZM250.95-3.35L250.95-3.35Q250.95-3.8 251.03-4.48 251.1-5.15 251.3-6.28 251.5-7.4 251.83-9 252.15-10.6 252.65-12.85L252.65-12.85Q252.75-13.35 253.1-14.45 253.45-15.55 254.03-16.78 254.6-18 255.43-19.15 256.25-20.3 257.4-20.85L257.4-20.85Q258.25-20.65 259.65-19.83 261.05-19 262.05-17.55L262.05-17.55Q260.9-16.25 260.13-14.95 259.35-13.65 258.73-12.25 258.1-10.85 257.58-9.35 257.05-7.85 256.4-6.2L256.4-6.2Q255.85-4.8 255.4-3.33 254.95-1.85 254.9-0.75L254.9-0.75Q254.9 0.15 254.88 0.53 254.85 0.9 254.6 0.9L254.6 0.9Q254.4 0.9 253.8 0.65 253.2 0.4 252.58-0.13 251.95-0.65 251.45-1.45 250.95-2.25 250.95-3.35ZM260.5-25.05L260.5-25.05Q260.5-25.35 260.65-25.95L260.65-25.95Q260.4-26.2 260.23-26.7 260.05-27.2 260.05-27.6L260.05-27.6Q260.05-28.05 260.18-28.83 260.3-29.6 260.5-30.5 260.7-31.4 261-32.38 261.3-33.35 261.6-34.15L261.6-34.15Q262.2-34.15 263.08-33.83 263.95-33.5 264.85-32.98 265.75-32.45 266.5-31.83 267.25-31.2 267.65-30.65L267.65-30.65Q267.1-30.1 266.2-29.13 265.3-28.15 264.45-27.08 263.6-26 262.9-25.05 262.2-24.1 262-23.7L262-23.7Q261.4-23.8 260.95-24.23 260.5-24.65 260.5-25.05ZM279.95-19.9L279.95-19.9Q279.9-18.95 279.63-17.93 279.35-16.9 278.95-16.07 278.55-15.25 278.1-14.7 277.65-14.15 277.25-14.15L277.25-14.15Q276.7-14.2 276.6-14.9L276.6-14.9Q276.6-15.05 276.73-15.38 276.85-15.7 277-16.1 277.15-16.5 277.28-16.9 277.4-17.3 277.4-17.6L277.4-17.6Q277.4-18.3 277.08-18.78 276.75-19.25 276.2-19.25L276.2-19.25Q274.2-19.25 273.15-16.75 272.1-14.25 272.1-9.4L272.1-9.4Q272.1-8.9 272.15-8.8L272.15-8.8Q273.2-8.85 274.03-8.88 274.85-8.9 275.65-8.9L275.65-8.9Q275.7-8.8 275.7-8.5L275.7-8.5Q275.7-8.05 275.5-7.85L275.5-7.85Q274.35-7.6 273.68-7.43 273-7.25 272.65-7.1 272.3-6.95 272.23-6.78 272.15-6.6 272.15-6.3L272.15-6.3Q272.15-5.9 272.18-5.5 272.2-5.1 272.2-4.5L272.2-4.5Q272.2-0.3 269.93 2.25 267.65 4.8 263.6 5.2L263.6 5.2Q262.9 5.15 262.15 4.8 261.4 4.45 260.73 3.9 260.05 3.35 259.55 2.68 259.05 2 258.85 1.3L258.85 1.3Q258.85-0.6 259.65-2.33 260.45-4.05 261.83-5.38 263.2-6.7 265.08-7.53 266.95-8.35 269.15-8.5L269.15-8.5Q269.15-9.75 268.9-10.95 268.65-12.15 268.38-13.28 268.1-14.4 267.85-15.48 267.6-16.55 267.6-17.6L267.6-17.6Q267.6-18.95 268.15-20.28 268.7-21.6 269.6-22.73 270.5-23.85 271.7-24.65 272.9-25.45 274.2-25.75L274.2-25.75Q274.75-25.6 275.68-24.88 276.6-24.15 277.5-23.25 278.4-22.35 279.1-21.43 279.8-20.5 279.95-19.9ZM263.45 2.9L263.45 2.9Q264.65 2.4 265.73 1.45 266.8 0.5 267.6-0.7 268.4-1.9 268.88-3.25 269.35-4.6 269.35-5.9L269.35-5.9Q268.35-5.75 267.15-4.98 265.95-4.2 264.9-3.13 263.85-2.05 263.15-0.9 262.45 0.25 262.45 1.1L262.45 1.1Q262.45 2.2 263.45 2.9ZM282.75 14.45L282.75 14.45Q281.5 13.95 281.25 12.55L281.25 12.55Q281.05 11.2 279.55 10.35L279.55 10.35Q279.95 7.8 280.45 5.2 280.95 2.6 281.73-0.73 282.5-4.05 283.68-8.47 284.85-12.9 286.65-19.2L286.65-19.2Q285-19.2 284.05-19.15 283.1-19.1 282.2-18.95L282.2-18.95Q282-19.15 281.88-19.5 281.75-19.85 281.75-20.15L281.75-20.15Q282.25-20.35 283.8-20.68 285.35-21 287.2-21.25L287.2-21.25Q288.4-25.05 289.95-28.08 291.5-31.1 293.3-33.25 295.1-35.4 297.1-36.55 299.1-37.7 301.15-37.7L301.15-37.7Q301.75-37.7 302.3-37.63 302.85-37.55 303.15-37.55L303.15-37.55Q303.6-37.9 304.35-38.18 305.1-38.45 305.65-38.45L305.65-38.45Q306.25-38.45 307.2-37.8L307.2-37.8Q306.8-37.1 306.35-35.9 305.9-34.7 305.6-33.55L305.6-33.55Q304.35-29.85 302.95-28.75L302.95-28.75Q302.4-28.75 302.35-30.2L302.35-30.2Q302.3-31.25 302.05-32.25L302.05-32.25Q301.85-32.7 301.78-33.05 301.7-33.4 301.7-33.95L301.7-33.95Q301.7-34.25 301.75-34.68 301.8-35.1 301.95-36.1L301.95-36.1Q301.1-36.1 300.08-35.05 299.05-34 297.93-32.08 296.8-30.15 295.65-27.5 294.5-24.85 293.45-21.65L293.45-21.65 297.65-21.8Q297.9-21.55 298.08-20.68 298.25-19.8 298.3-18.85L298.3-18.85 292.8-19.15Q290.9-13.5 289.25-8.35 287.6-3.2 286.3 1.15 285 5.5 284.08 8.93 283.15 12.35 282.75 14.45ZM297.15-3.35L297.15-3.35Q297.15-3.8 297.23-4.48 297.3-5.15 297.5-6.28 297.7-7.4 298.03-9 298.35-10.6 298.85-12.85L298.85-12.85Q298.95-13.35 299.3-14.45 299.65-15.55 300.23-16.78 300.8-18 301.63-19.15 302.45-20.3 303.6-20.85L303.6-20.85Q304.45-20.65 305.85-19.83 307.25-19 308.25-17.55L308.25-17.55Q307.1-16.25 306.33-14.95 305.55-13.65 304.93-12.25 304.3-10.85 303.78-9.35 303.25-7.85 302.6-6.2L302.6-6.2Q302.05-4.8 301.6-3.33 301.15-1.85 301.1-0.75L301.1-0.75Q301.1 0.15 301.08 0.53 301.05 0.9 300.8 0.9L300.8 0.9Q300.6 0.9 300 0.65 299.4 0.4 298.78-0.13 298.15-0.65 297.65-1.45 297.15-2.25 297.15-3.35ZM306.7-25.05L306.7-25.05Q306.7-25.35 306.85-25.95L306.85-25.95Q306.6-26.2 306.43-26.7 306.25-27.2 306.25-27.6L306.25-27.6Q306.25-28.05 306.38-28.83 306.5-29.6 306.7-30.5 306.9-31.4 307.2-32.38 307.5-33.35 307.8-34.15L307.8-34.15Q308.4-34.15 309.28-33.83 310.15-33.5 311.05-32.98 311.95-32.45 312.7-31.83 313.45-31.2 313.85-30.65L313.85-30.65Q313.3-30.1 312.4-29.13 311.5-28.15 310.65-27.08 309.8-26 309.1-25.05 308.4-24.1 308.2-23.7L308.2-23.7Q307.6-23.8 307.15-24.23 306.7-24.65 306.7-25.05ZM326.8-20.7L326.8-20.7Q326.6-17.6 325.7-15.38 324.8-13.15 323.13-11.48 321.45-9.8 319.05-8.45 316.65-7.1 313.45-5.85L313.45-5.85Q313.45-5.55 313.43-5.23 313.4-4.9 313.4-4.55L313.4-4.55Q313.4-3.9 313.5-3.2 313.6-2.5 313.85-1.9 314.1-1.3 314.55-0.93 315-0.55 315.7-0.55L315.7-0.55Q317.05-0.55 318.35-1.15 319.65-1.75 320.83-2.63 322-3.5 323.03-4.53 324.05-5.55 324.85-6.4L324.85-6.4Q325.35-5.95 325.7-5.55L325.7-5.55Q323.45-2.55 320.78-0.58 318.1 1.4 315.7 1.95L315.7 1.95Q312.25 1.55 310.33-0.58 308.4-2.7 308.4-5.7L308.4-5.7Q308.4-7.75 308.98-9.88 309.55-12 310.58-13.98 311.6-15.95 312.98-17.7 314.35-19.45 315.93-20.75 317.5-22.05 319.18-22.8 320.85-23.55 322.5-23.55L322.5-23.55Q324.8-23.25 326.8-20.7ZM323.35-19.05L323.35-19.05Q322-18.85 320.55-17.95 319.1-17.05 317.83-15.55 316.55-14.05 315.5-12.05 314.45-10.05 313.85-7.75L313.85-7.75Q317.85-9.75 320.5-12.68 323.15-15.6 323.35-19.05ZM340-23.35L340-23.35Q341-23.35 342.3-22.75 343.6-22.15 344.6-21.2L344.6-21.2Q344.35-23.2 343.98-24.98 343.6-26.75 342.88-28.65 342.15-30.55 340.95-32.8 339.75-35.05 337.95-37.95L337.95-37.95Q338.1-38.4 338.63-39 339.15-39.6 339.83-40.13 340.5-40.65 341.23-41.05 341.95-41.45 342.6-41.55L342.6-41.55Q344-40 345.25-37.68 346.5-35.35 347.45-32.68 348.4-30 348.93-27.15 349.45-24.3 349.45-21.7L349.45-21.7Q349.45-19.1 348.88-16.35 348.3-13.6 347.28-10.98 346.25-8.35 344.9-6 343.55-3.65 341.98-1.8 340.4 0.05 338.7 1.23 337 2.4 335.3 2.7L335.3 2.7Q331.85 2.3 330.03 0.48 328.2-1.35 328.2-4.55L328.2-4.55Q328.2-6.25 328.73-8.25 329.25-10.25 330.13-12.23 331-14.2 332.18-16.07 333.35-17.95 334.68-19.45 336-20.95 337.35-22 338.7-23.05 340-23.35ZM334.9 0.7L334.9 0.7Q336.65 0.1 338.4-1.95 340.15-4 341.55-6.78 342.95-9.55 343.83-12.73 344.7-15.9 344.7-18.85L344.7-18.85Q344.7-19.7 344.7-19.9 344.7-20.1 344.65-20.3L344.65-20.3Q343.45-19.8 342.1-18.6 340.75-17.4 339.4-15.83 338.05-14.25 336.85-12.4 335.65-10.55 334.7-8.7 333.75-6.85 333.2-5.15 332.65-3.45 332.65-2.15L332.65-2.15Q332.65 0.35 334.9 0.7ZM364.9-9.8L364.9-9.8Q364.9-13.3 365.73-16.68 366.55-20.05 368.05-23.08 369.55-26.1 371.63-28.63 373.7-31.15 376.18-33 378.65-34.85 381.45-35.88 384.25-36.9 387.2-36.9L387.2-36.9Q390.65-36.9 392.57-35.45 394.5-34 394.5-31.4L394.5-31.4Q394.5-30.4 394.23-29.35 393.95-28.3 393.43-27.28 392.9-26.25 392.2-25.3 391.5-24.35 390.65-23.65L390.65-23.65Q389.35-23.85 388.4-24.83 387.45-25.8 387.2-27.1L387.2-27.1Q388.95-28.55 389.98-30.13 391-31.7 391-33L391-33Q391-35.2 388.25-35.2L388.25-35.2Q387.1-35.2 385.88-34.73 384.65-34.25 383.4-33.4 382.15-32.55 380.98-31.35 379.8-30.15 378.8-28.7L378.8-28.7Q371.85-18.7 371.85-8.25L371.85-8.25Q371.85-4.55 373-2.3 374.15-0.05 376.05 0.35L376.05 0.35Q378.2-0.15 381.5-2.4 384.8-4.65 388.7-8.25L388.7-8.25Q389.2-7.75 389.3-7.2L389.3-7.2Q387.85-5.3 386.3-3.55 384.75-1.8 383.23-0.35 381.7 1.1 380.23 2.2 378.75 3.3 377.5 3.9L377.5 3.9Q371.3 3.8 368.1 0.35 364.9-3.1 364.9-9.8ZM406.45-1.1L406.45-1.1Q405.5-1.9 405.18-3.1 404.85-4.3 404.85-5.15L404.85-5.15Q404.85-6.2 405.1-6.95L405.1-6.95Q404.9-6.95 404.2-6.15 403.5-5.35 402.68-4.25 401.85-3.15 401.05-2.1 400.25-1.05 399.85-0.55L399.85-0.55Q399.2 0.15 398.63 0.55 398.05 0.95 397.7 1L397.7 1Q396.9 0.95 396.02 0.68 395.15 0.4 394.38-0.1 393.6-0.6 393.02-1.3 392.45-2 392.25-2.9L392.25-2.9Q392.25-4.3 392.32-5.2 392.4-6.1 392.65-7.15L392.65-7.15Q393.1-9.05 393.98-11.45 394.85-13.85 396-16.18 397.15-18.5 398.57-20.53 400-22.55 401.6-23.7L401.6-23.7Q402.05-23.7 402.65-23.63 403.25-23.55 403.88-23.35 404.5-23.15 405.07-22.88 405.65-22.6 406.05-22.15L406.05-22.15Q405.6-21.65 403.77-18.8 401.95-15.95 399.7-10.6L399.7-10.6Q399.45-10.05 399.1-9 398.75-7.95 398.4-6.8 398.05-5.65 397.82-4.55 397.6-3.45 397.6-2.8L397.6-2.8Q397.6-2.4 397.73-2.2 397.85-2 397.95-1.9L397.95-1.9Q398.7-2.2 399.85-3.55 401-4.9 403.05-7.7L403.05-7.7Q403.55-8.4 404.23-9.3 404.9-10.2 405.6-11.23 406.3-12.25 406.93-13.35 407.55-14.45 407.95-15.55L407.95-15.55Q408.15-16.15 408.48-16.98 408.8-17.8 409.27-18.7 409.75-19.6 410.38-20.53 411-21.45 411.85-22.25L411.85-22.25Q412.5-22.25 413.25-22.1 414-21.95 414.68-21.73 415.35-21.5 415.85-21.23 416.35-20.95 416.6-20.65L416.6-20.65Q415.7-18.45 414.6-16.3 413.5-14.15 412.55-12.08 411.6-10 410.95-7.95 410.3-5.9 410.3-3.95L410.3-3.95Q410.3-2.9 410.48-2.13 410.65-1.35 410.85-0.83 411.05-0.3 411.23 0.05 411.4 0.4 411.4 0.65L411.4 0.65Q411.4 0.7 411.3 0.8L411.3 0.8Q411.25 0.85 411.2 0.85L411.2 0.85Q410.85 0.85 410.3 0.7 409.75 0.55 409.07 0.28 408.4 0 407.73-0.35 407.05-0.7 406.45-1.1ZM434.8-19.9L434.8-19.9Q434.75-18.95 434.47-17.93 434.2-16.9 433.8-16.07 433.4-15.25 432.95-14.7 432.5-14.15 432.1-14.15L432.1-14.15Q431.55-14.2 431.45-14.9L431.45-14.9Q431.45-15.05 431.57-15.38 431.7-15.7 431.85-16.1 432-16.5 432.13-16.9 432.25-17.3 432.25-17.6L432.25-17.6Q432.25-18.3 431.93-18.78 431.6-19.25 431.05-19.25L431.05-19.25Q429.05-19.25 428-16.75 426.95-14.25 426.95-9.4L426.95-9.4Q426.95-8.9 427-8.8L427-8.8Q428.05-8.85 428.88-8.88 429.7-8.9 430.5-8.9L430.5-8.9Q430.55-8.8 430.55-8.5L430.55-8.5Q430.55-8.05 430.35-7.85L430.35-7.85Q429.2-7.6 428.52-7.43 427.85-7.25 427.5-7.1 427.15-6.95 427.07-6.78 427-6.6 427-6.3L427-6.3Q427-5.9 427.02-5.5 427.05-5.1 427.05-4.5L427.05-4.5Q427.05-0.3 424.77 2.25 422.5 4.8 418.45 5.2L418.45 5.2Q417.75 5.15 417 4.8 416.25 4.45 415.57 3.9 414.9 3.35 414.4 2.68 413.9 2 413.7 1.3L413.7 1.3Q413.7-0.6 414.5-2.33 415.3-4.05 416.68-5.38 418.05-6.7 419.93-7.53 421.8-8.35 424-8.5L424-8.5Q424-9.75 423.75-10.95 423.5-12.15 423.22-13.28 422.95-14.4 422.7-15.48 422.45-16.55 422.45-17.6L422.45-17.6Q422.45-18.95 423-20.28 423.55-21.6 424.45-22.73 425.35-23.85 426.55-24.65 427.75-25.45 429.05-25.75L429.05-25.75Q429.6-25.6 430.52-24.88 431.45-24.15 432.35-23.25 433.25-22.35 433.95-21.43 434.65-20.5 434.8-19.9ZM418.3 2.9L418.3 2.9Q419.5 2.4 420.57 1.45 421.65 0.5 422.45-0.7 423.25-1.9 423.72-3.25 424.2-4.6 424.2-5.9L424.2-5.9Q423.2-5.75 422-4.98 420.8-4.2 419.75-3.13 418.7-2.05 418-0.9 417.3 0.25 417.3 1.1L417.3 1.1Q417.3 2.2 418.3 2.9ZM440.65-19.15L437.8-19.15Q437.55-19.45 437.35-20.43 437.15-21.4 437.15-22.1L437.15-22.1Q438.45-22 439.65-21.93 440.85-21.85 441.85-21.8L441.85-21.8Q442.6-23.3 443.48-24.78 444.35-26.25 445.18-27.48 446-28.7 446.73-29.55 447.45-30.4 447.85-30.65L447.85-30.65Q448.35-30.65 449.13-30.48 449.9-30.3 450.7-30.03 451.5-29.75 452.15-29.45 452.8-29.15 453.05-28.85L453.05-28.85Q451.55-26.95 450.48-25.33 449.4-23.7 448.15-21.6L448.15-21.6Q449.15-21.6 450.18-21.65 451.2-21.7 452.25-21.8L452.25-21.8Q452.5-21.55 452.65-21.18 452.8-20.8 452.8-20.4L452.8-20.4Q450.35-19.5 446.85-19.4L446.85-19.4Q445.6-17 444.63-14.63 443.65-12.25 442.98-10.05 442.3-7.85 441.93-5.9 441.55-3.95 441.55-2.4L441.55-2.4Q441.55-0.2 443.2 0.05L443.2 0.05Q444.7-0.15 446.05-0.7 447.4-1.25 448.45-2.1L448.45-2.1Q448.75-1.65 448.8-1.35L448.8-1.35Q448.5-0.9 447.77-0.3 447.05 0.3 446.2 0.88 445.35 1.45 444.55 1.85 443.75 2.25 443.35 2.3L443.35 2.3Q442.1 2.25 440.85 1.75 439.6 1.25 438.57 0.5 437.55-0.25 436.9-1.18 436.25-2.1 436.25-3L436.25-3Q436.25-4.2 436.57-6.03 436.9-7.85 437.5-10 438.1-12.15 438.9-14.5 439.7-16.85 440.65-19.15L440.65-19.15ZM458.35 1.75L458.35 1.75Q455.5 1.45 453.8-0.75 452.1-2.95 452.1-6.35L452.1-6.35Q452.1-8.35 452.7-10.5 453.3-12.65 454.4-14.68 455.5-16.7 457-18.5 458.5-20.3 460.25-21.6L460.25-21.6Q463-23.65 465.4-23.65L465.4-23.65Q467-22.8 468.55-20.1L468.55-20.1Q468.8-20.1 469-20.13 469.2-20.15 469.45-20.15L469.45-20.15Q472.1-20.15 472.1-15.45L472.1-15.45Q472.1-12.3 471.08-9.47 470.05-6.65 468.23-4.35 466.4-2.05 463.88-0.48 461.35 1.1 458.35 1.75ZM460.9-14L460.9-14Q460.05-12.85 459.3-11.5 458.55-10.15 458-8.78 457.45-7.4 457.15-6.13 456.85-4.85 456.85-3.85L456.85-3.85Q456.85-2.65 457.25-1.55 457.65-0.45 458.15-0.3L458.15-0.3Q460.4-0.8 462.28-2.18 464.15-3.55 465.53-5.6 466.9-7.65 467.68-10.25 468.45-12.85 468.45-15.8L468.45-15.8Q468.45-17.1 468.3-17.85 468.15-18.6 467.8-19.15L467.8-19.15Q465.6-18.5 463.88-17.05 462.15-15.6 460.9-14ZM503.4-15.35L503.4-15.35Q502.6-15.3 501.45-14.33 500.3-13.35 498.98-11.83 497.65-10.3 496.23-8.45 494.8-6.6 493.48-4.78 492.15-2.95 491-1.35 489.85 0.25 489.05 1.2L489.05 1.2Q487.95 0.75 487.15-0.13 486.35-1 486-2.3L486-2.3Q486.25-3.85 486.7-5.53 487.15-7.2 487.88-9 488.6-10.8 489.68-12.78 490.75-14.75 492.3-16.95L492.3-16.95Q491.55-16.9 490.25-15.88 488.95-14.85 487.45-13.23 485.95-11.6 484.35-9.58 482.75-7.55 481.35-5.6L481.35-5.6Q479.5-3 478.28-1.05 477.05 0.9 476.5 1.25L476.5 1.25Q475.2 0.3 474.7-0.8 474.2-1.9 473.95-3.25L473.95-3.25Q474-4.45 474.33-6.25 474.65-8.05 475.25-9.95L475.25-9.95Q476.4-13.6 478.23-17.2 480.05-20.8 481.75-23.8L481.75-23.8Q483.15-23.5 484.28-22.85 485.4-22.2 486.65-20.95L486.65-20.95Q486.15-19.4 485.1-17.68 484.05-15.95 482.9-14.05 481.75-12.15 480.8-10.15 479.85-8.15 479.55-6.1L479.55-6.1Q480.95-8.1 482.88-10.7 484.8-13.3 486.83-15.6 488.85-17.9 490.85-19.5 492.85-21.1 494.45-21.1L494.45-21.1Q495.05-21.1 495.75-20.9 496.45-20.7 497.05-20.4 497.65-20.1 498.05-19.83 498.45-19.55 498.5-19.4L498.5-19.4Q498.25-18.4 497.33-16.68 496.4-14.95 495.35-13.05 494.3-11.15 493.4-9.38 492.5-7.6 492.35-6.55L492.35-6.55Q494.8-9.9 496.95-12.63 499.1-15.35 501-17.3 502.9-19.25 504.53-20.3 506.15-21.35 507.6-21.35L507.6-21.35Q508.6-21.35 509.48-20.83 510.35-20.3 510.7-19.3L510.7-19.3Q510.25-17.8 509.23-15.7 508.2-13.6 507.15-11.28 506.1-8.95 505.28-6.7 504.45-4.45 504.45-2.65L504.45-2.65Q504.45-1.6 504.75-1.28 505.05-0.95 505.6-0.95L505.6-0.95Q506.2-0.95 506.73-1.18 507.25-1.4 507.5-1.4L507.5-1.4Q507.8-1.2 507.85-0.9 507.9-0.6 507.9-0.35L507.9-0.35Q506.9 0.45 505.85 0.98 504.8 1.5 503.5 1.5L503.5 1.5Q502.3 1.5 501.53 1.1 500.75 0.7 500.25 0 499.75-0.7 499.55-1.6 499.35-2.5 499.35-3.55L499.35-3.55Q499.35-5.25 499.8-6.93 500.25-8.6 500.88-10.13 501.5-11.65 502.2-12.98 502.9-14.3 503.4-15.35ZM530.65-20.7L530.65-20.7Q530.45-17.6 529.55-15.38 528.65-13.15 526.98-11.48 525.3-9.8 522.9-8.45 520.5-7.1 517.3-5.85L517.3-5.85Q517.3-5.55 517.28-5.23 517.25-4.9 517.25-4.55L517.25-4.55Q517.25-3.9 517.35-3.2 517.45-2.5 517.7-1.9 517.95-1.3 518.4-0.93 518.85-0.55 519.55-0.55L519.55-0.55Q520.9-0.55 522.2-1.15 523.5-1.75 524.68-2.63 525.85-3.5 526.88-4.53 527.9-5.55 528.7-6.4L528.7-6.4Q529.2-5.95 529.55-5.55L529.55-5.55Q527.3-2.55 524.63-0.58 521.95 1.4 519.55 1.95L519.55 1.95Q516.1 1.55 514.18-0.58 512.25-2.7 512.25-5.7L512.25-5.7Q512.25-7.75 512.83-9.88 513.4-12 514.43-13.98 515.45-15.95 516.83-17.7 518.2-19.45 519.78-20.75 521.35-22.05 523.03-22.8 524.7-23.55 526.35-23.55L526.35-23.55Q528.65-23.25 530.65-20.7ZM527.2-19.05L527.2-19.05Q525.85-18.85 524.4-17.95 522.95-17.05 521.68-15.55 520.4-14.05 519.35-12.05 518.3-10.05 517.7-7.75L517.7-7.75Q521.7-9.75 524.35-12.68 527-15.6 527.2-19.05ZM531.75-1L531.75-1Q532-2.45 532.63-4.83 533.25-7.2 534.1-9.88 534.95-12.55 535.9-15.25 536.85-17.95 537.75-20.1L537.75-20.1Q538.4-21.65 538.9-22.53 539.4-23.4 540-24L540-24Q540.7-23.9 541.45-23.65 542.2-23.4 542.9-23.05 543.6-22.7 544.15-22.33 544.7-21.95 545-21.6L545-21.6Q543.65-20 542.63-17.95 541.6-15.9 540.55-12.7L540.55-12.7Q543.25-15.1 545.33-17.3 547.4-19.5 549.2-22.2L549.2-22.2Q549.5-22.45 550.25-22.45L550.25-22.45Q550.95-22.45 551.6-22.23 552.25-22 552.5-21.6L552.5-21.6Q551.6-19.2 551.6-16.85L551.6-16.85Q551.6-14.65 552.25-13.55L552.25-13.55Q552.2-13.25 551.58-12.4 550.95-11.55 550.2-10.8L550.2-10.8Q548.85-11.5 547.8-12.73 546.75-13.95 546.25-15.4L546.25-15.4Q543.9-13.75 542.25-12.18 540.6-10.6 539.43-8.68 538.25-6.75 537.43-4.25 536.6-1.75 535.85 1.7L535.85 1.7Q535.4 1.65 534.77 1.38 534.15 1.1 533.52 0.7 532.9 0.3 532.4-0.15 531.9-0.6 531.75-1ZM569.55-19.9L569.55-19.9Q569.5-18.95 569.23-17.93 568.95-16.9 568.55-16.07 568.15-15.25 567.7-14.7 567.25-14.15 566.85-14.15L566.85-14.15Q566.3-14.2 566.2-14.9L566.2-14.9Q566.2-15.05 566.33-15.38 566.45-15.7 566.6-16.1 566.75-16.5 566.88-16.9 567-17.3 567-17.6L567-17.6Q567-18.3 566.68-18.78 566.35-19.25 565.8-19.25L565.8-19.25Q563.8-19.25 562.75-16.75 561.7-14.25 561.7-9.4L561.7-9.4Q561.7-8.9 561.75-8.8L561.75-8.8Q562.8-8.85 563.63-8.88 564.45-8.9 565.25-8.9L565.25-8.9Q565.3-8.8 565.3-8.5L565.3-8.5Q565.3-8.05 565.1-7.85L565.1-7.85Q563.95-7.6 563.28-7.43 562.6-7.25 562.25-7.1 561.9-6.95 561.83-6.78 561.75-6.6 561.75-6.3L561.75-6.3Q561.75-5.9 561.78-5.5 561.8-5.1 561.8-4.5L561.8-4.5Q561.8-0.3 559.53 2.25 557.25 4.8 553.2 5.2L553.2 5.2Q552.5 5.15 551.75 4.8 551 4.45 550.33 3.9 549.65 3.35 549.15 2.68 548.65 2 548.45 1.3L548.45 1.3Q548.45-0.6 549.25-2.33 550.05-4.05 551.43-5.38 552.8-6.7 554.68-7.53 556.55-8.35 558.75-8.5L558.75-8.5Q558.75-9.75 558.5-10.95 558.25-12.15 557.98-13.28 557.7-14.4 557.45-15.48 557.2-16.55 557.2-17.6L557.2-17.6Q557.2-18.95 557.75-20.28 558.3-21.6 559.2-22.73 560.1-23.85 561.3-24.65 562.5-25.45 563.8-25.75L563.8-25.75Q564.35-25.6 565.28-24.88 566.2-24.15 567.1-23.25 568-22.35 568.7-21.43 569.4-20.5 569.55-19.9ZM553.05 2.9L553.05 2.9Q554.25 2.4 555.33 1.45 556.4 0.5 557.2-0.7 558-1.9 558.48-3.25 558.95-4.6 558.95-5.9L558.95-5.9Q557.95-5.75 556.75-4.98 555.55-4.2 554.5-3.13 553.45-2.05 552.75-0.9 552.05 0.25 552.05 1.1L552.05 1.1Q552.05 2.2 553.05 2.9Z" opacity="1" transform="matrix(1,0,0,1,0,0)" fill="#d1abff" class="slogan-text-1" data-fill-palette-color="quaternary" id="text-1"></path></svg></g></svg></g></svg></g></svg></g><g transform="matrix(1,0,0,1,55.76327672583987,0)"><svg viewBox="0 0 101.63188777547737 101.63188777547737" height="101.63188777547737" width="101.63188777547737"><g><svg xmlns="http://www.w3.org/2000/svg" xmlns:xlink="http://www.w3.org/1999/xlink" version="1.1" x="0" y="0" viewBox="12.2 12.200000000000003 75.6 75.6" enable-background="new 0 0 100 100" xml:space="preserve" height="101.63188777547737" width="101.63188777547737" class="icon-icon-0" data-fill-palette-color="quaternary" id="icon-0"><path d="M87.8 50c0-20.9-16.9-37.8-37.8-37.8S12.2 29.1 12.2 50 29.1 87.8 50 87.8c10.3 0 19.7-4.1 26.5-10.8l0.1 0c0.6-0.6 1.3-1.3 1.9-1.9l-0.1 0C84.2 68.4 87.8 59.6 87.8 50zM50 14.9c19.4 0 35.1 15.8 35.1 35.1 0 9.2-3.5 17.5-9.3 23.8l-13.9-6.6c-0.1 0-0.5-0.2-1-0.6-1.5-1.3-1.5-4.8-1.4-5.9v-0.1c0-0.9 0.3-1.4 0.5-1.8 0.3-0.2 1.2-0.8 2-1.3l0.1-0.1c1.5-1.3 2-4.4 2.1-5 0.1-0.9 0.1-1.5 0.1-1.6 0-0.8-0.2-1.5-0.7-1.9l-0.4-0.5c-0.1 0-0.1-0.1-0.1-0.2l0.1-2.8c0-7.3-5.9-13.3-13.3-13.3-7.2 0-13.2 5.9-13.3 13.1 0 0.3-0.1 2.5-0.1 3 0 0.1 0 0.2-0.1 0.3l-0.5 0.6c-0.3 0.3-0.7 0.9-0.7 1.8 0 0 0 0.7 0.1 1.6 0.1 0.6 0.6 3.7 2.1 4.9v0.1c0.7 0.5 1.8 1.2 2 1.4 0.1 0.2 0.4 0.7 0.4 1.8v0.1c0.1 1.1 0.1 4.5-1.3 5.8-0.6 0.4-1 0.7-1.1 0.7l-13.1 6.2L24 73.6c-5.7-6.2-9.2-14.5-9.2-23.6C14.9 30.6 30.6 14.9 50 14.9zM50 85.1c-9.2 0-17.6-3.6-23.9-9.4l2.7-1.3 0.2-0.1 9.5-4.5c0.7-0.2 1.4-0.8 1.8-1.1 2.5-2.2 2.3-7 2.2-7.9 0-1.4-0.3-2.5-0.9-3.3-0.3-0.5-1.2-1.1-2.6-2-0.5-0.5-1-2.1-1.2-3.3-0.1-0.7-0.1-1.3-0.1-1.3v-0.2l0.6-0.7c0.4-0.4 0.5-1.1 0.6-1.5v-0.2c0 0 0.1-2.9 0.1-3.2 0.1-5.8 4.9-10.6 10.8-10.6 6 0 10.8 4.9 10.9 10.9l-0.1 3v0.1c0 0.4 0.2 1.1 0.6 1.5l0.5 0.6v0.1 0.1c0 0 0 0.5-0.1 1.3-0.2 1.2-0.7 2.8-1.2 3.3-1.8 1.1-2.4 1.6-2.6 1.9l-0.1 0.1c-0.6 1-0.9 2-0.9 3.2 0 1-0.3 5.7 2.3 8 0.3 0.3 1.1 0.8 1.8 1.1l10.8 5.1 2.1 1C67.6 81.6 59.2 85.1 50 85.1z" fill="#d1abff" data-fill-palette-color="quaternary"></path></svg></g></svg></g><g></g></svg></g></svg></g></svg></g></svg></g><defs></defs></svg><rect width="342.85155851775386" height="342.85155851775386" fill="none" stroke="none" visibility="hidden"></rect></g></svg></g></svg>